<svg width="1080" height="1080" viewBox="0 0 1080 1080" fill="none" xmlns="http://www.w3.org/2000/svg">
<rect width="1080" height="1080" fill="#FDE24F"/>
<path d="M238.51 1014C187.872 1014 148.627 996.73 120.776 962.191C92.9255 927.143 79 874.317 79 803.714C79 734.635 92.9255 682.571 120.776 647.524C149.134 612.476 186.606 594.952 233.193 594.952C260.031 594.952 283.578 599.778 303.833 609.429C324.594 619.079 340.798 632.794 352.445 650.571H357.003V454H461.064V1004.86H372.194L365.358 952.286H360.041C347.381 972.603 330.418 988.095 309.15 998.762C287.882 1008.92 264.335 1014 238.51 1014ZM271.931 923.333C328.645 923.333 357.003 886 357.003 811.333V799.143C357.003 723.46 328.645 685.619 271.931 685.619C241.042 685.619 219.014 695.016 205.848 713.81C192.682 732.095 186.099 760.032 186.099 797.619V811.333C186.099 848.921 192.682 877.111 205.848 895.905C219.014 914.19 241.042 923.333 271.931 923.333Z" fill="#00214D"/>
<path d="M696.02 1014C631.71 1014 583.604 996.984 551.702 962.952C520.306 928.921 504.608 876.095 504.608 804.476C504.608 732.857 520.306 680.032 551.702 646C583.604 611.968 631.71 594.952 696.02 594.952C755.267 594.952 799.575 612.222 828.945 646.762C858.315 680.794 873 733.365 873 804.476V828.857H610.189C611.201 864.413 618.291 890.825 631.457 908.095C644.623 924.857 666.65 933.238 697.539 933.238C719.314 933.238 736.784 927.143 749.95 914.952C763.622 902.762 770.458 885.492 770.458 863.143H873C873 913.429 856.796 951.27 824.387 976.667C791.979 1001.56 749.19 1014 696.02 1014ZM765.141 759.524C765.141 704.159 742.101 676.476 696.02 676.476C669.688 676.476 649.686 683.333 636.014 697.048C622.848 710.762 614.746 731.587 611.708 759.524H765.141Z" fill="#00214D"/>
<path d="M874.243 530C825.432 530 787.856 518.778 761.514 496.335C735.171 473.118 722 441.775 722 402.306V394.18H818.459V403.466C818.459 418.945 823.108 430.94 832.405 439.453C842.477 447.192 856.036 451.062 873.081 451.062C889.351 451.062 902.135 447.192 911.432 439.453C920.73 430.94 925.378 418.558 925.378 402.306C925.378 367.48 906.009 350.067 867.27 350.067H830.081V269.968H869.595C884.315 269.968 895.937 266.098 904.459 258.359C912.982 249.846 917.243 237.077 917.243 220.051C917.243 190.643 902.522 175.938 873.081 175.938C859.135 175.938 847.901 179.808 839.378 187.547C830.856 195.286 826.595 206.121 826.595 220.051V229.338H730.135V215.407C730.135 179.808 743.306 151.173 769.649 129.504C796.766 107.835 830.856 97 871.919 97C915.306 97 949.784 107.448 975.351 128.343C1001.69 148.465 1014.86 177.486 1014.86 215.407C1014.86 236.303 1009.44 253.716 998.595 267.646C988.522 281.576 973.027 293.959 952.108 304.794V309.437C974.577 317.95 992.009 330.719 1004.41 347.745C1016.8 363.997 1023 384.119 1023 408.11C1023 446.031 1009.05 475.827 981.162 497.496C954.045 519.165 918.405 530 874.243 530Z" fill="#00214D"/>
</svg>
