<?xml version="1.0" standalone="no"?>
<!DOCTYPE svg PUBLIC "-//W3C//DTD SVG 20010904//EN"
 "http://www.w3.org/TR/2001/REC-SVG-20010904/DTD/svg10.dtd">
<svg version="1.0" xmlns="http://www.w3.org/2000/svg"
 width="700.000000pt" height="700.000000pt" viewBox="0 0 700.000000 700.000000"
 preserveAspectRatio="xMidYMid meet">
<metadata>
Created by potrace 1.14, written by Peter Selinger 2001-2017
</metadata>
<g transform="translate(0.000000,700.000000) scale(0.100000,-0.100000)"
fill="#000000" stroke="none">
<path d="M5510 6365 c-8 -2 -49 -9 -90 -15 -185 -30 -361 -118 -486 -245 -132
-132 -189 -270 -201 -482 l-6 -113 316 0 317 0 0 63 c0 122 48 205 148 254 50
25 68 28 152 28 84 0 102 -3 152 -28 94 -46 128 -114 128 -257 0 -153 -48
-244 -152 -291 -48 -21 -70 -24 -230 -27 l-178 -4 0 -258 0 -258 188 -4 c214
-6 253 -15 327 -80 58 -51 81 -97 96 -188 24 -141 -22 -269 -117 -330 -65 -41
-133 -54 -253 -48 -87 4 -109 9 -166 37 -99 49 -137 114 -150 259 l-7 72 -309
0 -309 0 0 -67 c1 -364 198 -640 535 -752 133 -44 263 -62 449 -62 282 0 467
50 648 173 220 149 329 372 315 648 -9 176 -61 303 -176 424 -53 56 -171 137
-236 162 -52 19 -59 44 -18 63 95 43 232 161 293 253 63 94 85 179 84 323 0
80 -6 143 -18 190 -76 300 -343 506 -716 555 -68 8 -293 12 -330 5z"/>
<path d="M2317 4053 c-4 -3 -7 -291 -7 -640 0 -500 -3 -633 -12 -633 -7 0 -24
16 -37 35 -35 52 -150 155 -214 194 -71 41 -155 76 -255 103 -65 18 -106 22
-267 22 -216 1 -271 -9 -412 -74 -104 -48 -161 -88 -247 -169 -221 -212 -331
-522 -352 -996 -15 -339 39 -689 142 -922 94 -213 280 -394 485 -473 118 -45
198 -60 359 -67 222 -8 409 34 565 128 74 44 179 142 230 213 61 85 69 79 89
-72 9 -70 19 -146 22 -169 l6 -43 289 0 289 0 0 1785 0 1785 -333 0 c-184 0
-337 -3 -340 -7z m-402 -1515 c77 -16 180 -74 230 -130 55 -61 108 -167 137
-273 20 -73 22 -103 22 -350 0 -249 -2 -276 -22 -350 -34 -123 -84 -218 -145
-279 -98 -98 -205 -136 -382 -136 -180 0 -294 40 -383 133 -63 67 -97 134
-130 256 -25 92 -26 107 -27 371 0 254 2 282 23 364 65 256 195 380 427 406
78 9 175 4 250 -12z"/>
<path d="M4252 3129 c-275 -37 -487 -134 -652 -299 -132 -132 -210 -275 -265
-486 -75 -287 -85 -698 -25 -1009 98 -507 377 -788 875 -881 80 -15 146 -19
330 -19 208 1 242 3 350 27 194 41 371 121 495 223 179 147 286 383 293 645
l2 75 -330 0 -330 0 -7 -65 c-18 -179 -124 -310 -292 -363 -57 -18 -94 -22
-186 -22 -269 1 -413 90 -493 305 -29 77 -57 230 -57 312 l0 58 850 0 850 0 0
119 c0 256 -34 521 -89 689 -123 376 -357 589 -746 678 -85 19 -462 28 -573
13z m374 -525 c60 -7 154 -56 201 -105 74 -78 115 -185 129 -338 l7 -81 -497
0 -496 0 0 28 c0 16 9 64 20 108 80 310 278 431 636 388z"/>
</g>
</svg>
